# xmcd CD database file
# Copyright (C) 1993-1998 Ti Kan
#
# Track frame offsets:
#	188
#	12780
#	26623
#	38635
#	52783
#	65750
#	79028
#	91885
#	105830
#	116648
#	131418
#	146168
#	161008
#	176870
#	189898
#	202865
#	215418
#	229835
#	241600
#	254868
#	267765
#
# Disc length: 3750 seconds
#
# Revision: 1
# Processed by: cddbd v1.4b41PL1 Copyright (c) Steve Scherf et al.
# Submitted via: CDValet v3.31 - Copyright (c) 1997 Greg Leichner
#
DISCID=150ea415
DTITLE=Elmore James - Classic Early Recordings: Canton Crusade 
DTITLE=[CD1]
DYEAR=1900
DGENRE=
TTITLE0=Dust My Broom
TTITLE1=Please Find My Baby (Version 1)
TTITLE2=Hawaiian Boogie
TTITLE3=Please Find My Baby (Version 2)
TTITLE4=Hand In Hand
TTITLE5=Long Tall Woman
TTITLE6=Rock My Baby Right
TTITLE7=One More Drink (Take 1)
TTITLE8=My Baby's Gone
TTITLE9=One More Drink (Take 2)
TTITLE10=Lost Woman Blues (aka Please Find My Baby) (Version 3)
TTITLE11=I Believe
TTITLE12=I Held My Baby Last Night
TTITLE13=Baby What's Wrong
TTITLE14=Sinful Woman
TTITLE15=Round House Boggie (aka Sax Symphonic Boggie)
TTITLE16=Dumb Woman Blues
TTITLE17=Sax-Only Boogie
TTITLE18=Kicking The Blues Around (aka Flaming Blues)
TTITLE19=I May Be Wrong
TTITLE20=Sweet Little Woman
EXTD=
EXTT0=
EXTT1=
EXTT2=
EXTT3=
EXTT4=
EXTT5=
EXTT6=
EXTT7=
EXTT8=
EXTT9=
EXTT10=
EXTT11=
EXTT12=
EXTT13=
EXTT14=
EXTT15=Bep Brown Orchestra
EXTT16=Bep Brown Orchestra
EXTT17=Featuring J. T. Brown (Sax)
EXTT18=Featuring J. T. Brown (Sax)
EXTT19=Little Johnny Jones and The Chicago Hound Dogs
EXTT20=Little Johnny Jones and The Chicago Hound Dogs
PLAYORDER=
